<svg id="Layer_1" enable-background="new 0 0 508.342 508.342" height="512" viewBox="0 0 508.342 508.342" width="512" xmlns="http://www.w3.org/2000/svg"><g><g><g><g id="XMLID_691_"><g><path d="m89.216 342.949c-9.026 0-16.344-7.317-16.344-16.343v-130.635c0-9.026 7.318-16.343 16.344-16.343s16.344 7.317 16.344 16.343v130.635c0 9.026-7.317 16.343-16.344 16.343z" fill="#414b82"/></g></g><g id="XMLID_690_"><g><path d="m49.468 342.949c-9.026 0-16.344-7.317-16.344-16.343v-130.635c0-9.026 7.318-16.343 16.344-16.343s16.344 7.317 16.344 16.343v130.635c0 9.026-7.317 16.343-16.344 16.343z" fill="#5f6e9b"/></g></g><g fill="#ffb69e"><ellipse cx="69.345" cy="28.227" rx="28.227" ry="28.227" transform="matrix(.999 -.045 .045 .999 -1.208 3.171)"/><path d="m0 131.166v66.48c0 7.522 6.098 13.62 13.62 13.62s13.62-6.098 13.62-13.62v-66.48l-13.619-2.869z"/><path d="m84.11 65.451h-31.1l-.161.998c-1.552 9.629 5.883 18.359 15.636 18.359 9.199 0 16.463-7.811 15.797-16.986z"/><path d="m111.397 131.166v66.48c0 7.522 6.098 13.62 13.62 13.62s13.62-6.098 13.62-13.62v-66.48l-13.619-2.869z"/></g><path d="m138.636 131.166v-33.646c-.089-17.683-14.772-32.069-32.733-32.069h-21.793c.102 8.225-7.558 15.152-15.566 15.152-8.584 0-14.963-6.901-15.534-15.152h-20.223c-17.99 0-32.698 14.386-32.787 32.137v33.577h27.239v-33.509c.013-2.599 2.657-4.967 5.548-4.967h.338v103.281h72.435l-.068-66.974h-.015l-.045-36.307h.47c2.862 0 5.481 2.368 5.494 4.899v33.577h27.24z" fill="#64afff"/></g></g><g><g id="XMLID_726_"><g id="XMLID_730_"><path d="m130.521 364.851c-9.603 0-17.387-7.785-17.387-17.387v-138.978c0-9.603 7.785-17.387 17.387-17.387s17.387 7.785 17.387 17.387v138.978c0 9.602-7.785 17.387-17.387 17.387z" fill="#ffb69e"/></g><g id="XMLID_729_"><path d="m172.802 364.851c-9.603 0-17.387-7.785-17.387-17.387v-138.978c0-9.603 7.785-17.387 17.387-17.387s17.387 7.785 17.387 17.387v138.978c0 9.602-7.784 17.387-17.387 17.387z" fill="#ffb69e"/></g></g><g><ellipse cx="151.661" cy="30.03" fill="#ffb69e" rx="30.029" ry="30.03" transform="matrix(.987 -.16 .16 .987 -2.852 24.681)"/></g><g fill="#ffb69e"><path d="m134.947 69.631-.281 2.937c-.945 9.891 6.832 18.447 16.768 18.447 10.055 0 17.87-8.752 16.738-18.742l-.299-2.642z"/><path d="m83.94 125.061s-25.022 69.265-25.198 69.746c-2.748 7.516 1.117 15.836 8.633 18.584 7.514 2.747 15.835-1.115 18.584-8.633.16-.437 21.083-58.231 21.083-58.231l5.741-16.058z"/><path d="m244.58 194.807c-.176-.481-26.114-72.323-26.114-72.323l-30.344 5.55c.187.806 7.945 17.792 7.945 17.792s21.118 58.441 21.297 58.931c2.751 7.525 11.077 11.377 18.584 8.633 7.515-2.747 11.38-11.067 8.632-18.583z"/></g><path d="m194.601 135.447 23.865-12.962s-4.876-13.699-8.201-23.373c-6.722-19.562-17.994-29.481-33.502-29.481h-8.889c-.337 8.399-8.254 15.337-16.509 15.337-8.848 0-15.497-6.914-16.417-15.337h-8.387c-15.508 0-26.78 9.919-33.502 29.481-3.325 9.674-9.118 25.95-9.118 25.95l24.781 10.385-14.769 97.481c-.855 4.932 2.963 9.433 7.931 9.433h99.556c4.985 0 8.786-4.496 7.931-9.433z" fill="#e64937"/></g><g><g id="XMLID_731_"><g id="XMLID_733_"><path d="m402.367 343.082c-9.03 0-16.35-7.32-16.35-16.35v-130.686c0-9.03 7.32-16.35 16.35-16.35s16.35 7.32 16.35 16.35v130.686c0 9.03-7.32 16.35-16.35 16.35z" fill="#ffb69e"/></g><g id="XMLID_732_"><path d="m442.126 343.082c-9.03 0-16.35-7.32-16.35-16.35v-130.686c0-9.03 7.32-16.35 16.35-16.35s16.35 7.32 16.35 16.35v130.686c0 9.03-7.32 16.35-16.35 16.35z" fill="#ffb69e"/></g></g><g><ellipse cx="422.247" cy="28.238" fill="#ffb69e" rx="28.238" ry="28.238" transform="matrix(.987 -.16 .16 .987 .929 68.001)"/></g><g fill="#ffb69e"><path d="m406.53 65.476-.264 2.762c-.889 9.301 6.425 17.346 15.768 17.346 9.455 0 16.804-8.229 15.739-17.624l-.282-2.484z"/><path d="m358.566 117.599s-23.529 65.132-23.694 65.585c-2.584 7.067 1.051 14.891 8.118 17.475 7.065 2.583 14.89-1.049 17.475-8.118.15-.411 19.825-54.757 19.825-54.757l5.398-15.1z"/><path d="m509.621 183.184c-.165-.452-24.556-68.008-24.556-68.008l-28.534 5.219c.176.758 7.471 16.731 7.471 16.731s19.858 54.954 20.026 55.415c2.587 7.076 10.416 10.699 17.475 8.118 7.068-2.584 10.702-10.408 8.118-17.475z"/></g><path d="m462.624 127.365 22.441-12.189s-4.585-12.881-7.711-21.978c-6.321-18.395-16.92-27.722-31.503-27.722h-8.359c-.317 7.898-7.762 14.422-15.524 14.422-8.32 0-14.572-6.501-15.438-14.422h-7.887c-14.583 0-25.182 9.327-31.503 27.722-3.126 9.097-8.574 24.401-8.574 24.401l23.302 9.766-13.888 91.665c-.804 4.638 2.786 8.87 7.458 8.87h93.616c4.687 0 8.262-4.228 7.458-8.87z" fill="#ff6473"/></g><g><g id="XMLID_687_"><g><path d="m362.24 368.426c-9.697 0-17.558-7.861-17.558-17.558v-140.34c0-9.697 7.861-17.558 17.558-17.558s17.558 7.861 17.558 17.558v140.34c0 9.698-7.861 17.558-17.558 17.558z" fill="#55696e"/></g></g><g id="XMLID_686_"><g><path d="m319.54 368.426c-9.697 0-17.558-7.861-17.558-17.558v-140.34c0-9.697 7.861-17.558 17.558-17.558s17.558 7.861 17.558 17.558v140.34c0 9.698-7.862 17.558-17.558 17.558z" fill="#748488"/></g></g><g fill="#ba6746"><ellipse cx="340.893" cy="30.324" rx="30.324" ry="30.324" transform="matrix(.999 -.045 .045 .999 -1.024 15.479)"/><path d="m266.396 140.91v71.419c0 8.081 6.551 14.632 14.632 14.632s14.632-6.551 14.632-14.632v-71.419l-14.631-3.082z"/><path d="m356.754 70.313h-33.411l-.173 1.072c-1.668 10.344 6.32 19.723 16.798 19.723 9.883 0 17.686-8.391 16.97-18.247z"/><path d="m386.069 140.91v71.419c0 8.081 6.551 14.632 14.632 14.632s14.632-6.551 14.632-14.632v-71.419l-14.631-3.082z"/></g><path d="m415.332 140.91v-36.145c-.095-18.997-15.87-34.451-35.164-34.451h-23.413c.109 8.836-8.119 16.278-16.722 16.278-9.221 0-16.075-7.414-16.688-16.278h-21.725c-19.326 0-35.127 15.454-35.222 34.525v36.072h29.263v-35.999c.014-2.792 2.855-5.336 5.96-5.336h.363v110.954h77.816l-.073-71.95h-.016l-.048-39.004h.505c3.075 0 5.888 2.544 5.902 5.262v36.072z" fill="#ffda52"/></g><g><path id="XMLID_751_" d="" style="fill:none;stroke:#000;stroke-width:35.02;stroke-linecap:round;stroke-linejoin:round;stroke-miterlimit:10"/><circle cx="245.148" cy="31.652" fill="#ffb69e" r="31.652"/><g id="XMLID_750_"><path d="m268.02 384.562c-10.121 0-18.325-8.204-18.325-18.325v-146.486c0-10.121 8.204-18.325 18.325-18.325s18.325 8.204 18.325 18.325v146.487c0 10.12-8.204 18.324-18.325 18.324z" fill="#1e2d64"/></g><g id="XMLID_749_"><path d="m223.454 384.562c-10.121 0-18.325-8.204-18.325-18.325v-146.486c0-10.121 8.204-18.325 18.325-18.325s18.325 8.204 18.325 18.325v146.487c0 10.12-8.204 18.324-18.325 18.324z" fill="#2a3a75"/></g><path d="m198.602 202.881v-94.321c.031-3.008 2.714-5.543 5.872-5.543h.815v115.1h41.965l11.047-72.386-8.78-55.451c-.068 0-25.422-17.804-25.422-17.804h-19.626c-19.979 0-36.314 16.131-36.413 35.959v94.446l15.271 6.27z" fill="#141a5c"/><path d="m286.184 218.117v-115.1h.815c3.16 0 5.844 2.539 5.872 5.549v94.315l15.271 6.334 15.271-6.334v-94.446c-.099-19.828-16.434-35.959-36.413-35.959h-19.432s-21.941 9.717-21.997 9.715v135.927h40.613z" fill="#0f1446"/><path d="m168.061 202.881v10.298s6.837 7.052 15.271 7.052 15.271-7.052 15.271-7.052v-10.298z" fill="#fff"/><path d="m292.871 202.881v10.298s6.837 6.305 15.271 6.305 15.271-6.305 15.271-6.305v-10.298z" fill="#fff"/><path d="m168.061 213.178c0 8.434 6.837 15.271 15.271 15.271s15.271-6.837 15.271-15.271z" fill="#ffb69e"/><path d="m292.871 213.178c0 8.434 6.837 15.271 15.271 15.271s15.271-6.837 15.271-15.271z" fill="#ffb69e"/><g><path d="m224.101 72.475s4.923 29.407 15.847 37.72l11.143.451c11.365-7.634 16.476-38.171 16.476-38.171z" fill="#fff"/><g fill="#141a5c"><path d="m251.756 72.475h-11.844c-1.489 0-2.613 1.351-2.343 2.815l1.95 10.564c.209 1.13 1.194 1.95 2.343 1.95h7.944c1.149 0 2.134-.82 2.343-1.95l1.95-10.564c.269-1.464-.855-2.815-2.343-2.815z"/><path d="m251.439 91.855c-.18-.916-.983-1.576-1.916-1.576h-7.378c-.933 0-1.736.66-1.916 1.576l-1.924 9.779c-.051.258-.049.523.005.779l1.638 7.78c1.798 1.368 3.758 2.165 5.886 2.165s4.088-.797 5.886-2.165l1.638-7.78c.054-.257.056-.522.005-.779z"/></g></g></g></g></svg>